Coordinates
version=1
nRows=10
nColumns=63
inDegrees=yes

Units are S.I. units (second, meters, Newtons, ...)
If the header above contains a line with 'inDegrees', this indicates whether rotational values are in degrees (yes) or radians (no).

endheader
time	pelvis_tilt	pelvis_list	pelvis_rotation	pelvis_tx	pelvis_ty	pelvis_tz	hip_flexion_r	hip_adduction_r	hip_rotation_r	knee_angle_r	knee_angle_r_beta	ankle_angle_r	subtalar_angle_r	mtp_angle_r	hip_flexion_l	hip_adduction_l	hip_rotation_l	knee_angle_l	knee_angle_l_beta	ankle_angle_l	subtalar_angle_l	mtp_angle_l	L5_S1_Flex_Ext	L5_S1_Lat_Bending	L5_S1_axial_rotation	L4_L5_Flex_Ext	L4_L5_Lat_Bending	L4_L5_axial_rotation	L3_L4_Flex_Ext	L3_L4_Lat_Bending	L3_L4_axial_rotation	L2_L3_Flex_Ext	L2_L3_Lat_Bending	L2_L3_axial_rotation	L1_L2_Flex_Ext	L1_L2_Lat_Bending	L1_L2_axial_rotation	L1_T12_Flex_Ext	L1_T12_Lat_Bending	L1_T12_axial_rotation	Abs_r3	Abs_r2	Abs_r1	Abs_t1	Abs_t2	neck_flexion	neck_bending	neck_rotation	arm_flex_r	arm_add_r	arm_rot_r	elbow_flex_r	pro_sup_r	wrist_flex_r	wrist_dev_r	arm_flex_l	arm_add_l	arm_rot_l	elbow_flex_l	pro_sup_l	wrist_flex_l	wrist_dev_l
1.160714	-3.998892	-5.549834	87.255803	0.229849	0.836965	0.699656	-0.812896	-3.497546	-2.288465	2.166230	0.037808	18.048168	-3.223082	0.000000	-0.400512	1.977796	0.474257	0.970653	0.016941	24.197221	6.880413	0.000000	0.085850	-0.289357	1.029801	0.159432	-0.384844	1.094164	0.141043	-0.703542	1.094164	0.098118	-0.703542	0.901076	0.079720	-0.590056	0.836714	0.049055	-0.448213	0.772351	0.613217	-3.273260	5.727446	0.000000	0.000000	26.890907	0.490781	-8.045762	0.550997	-6.381550	36.176623	45.242131	65.752292	-4.427540	9.711018	9.721684	-6.954533	44.511398	41.040766	86.290153	20.761830	16.164717
1.178571	-4.032649	-5.593771	87.175444	0.230174	0.836877	0.700062	-0.726516	-3.508455	-1.880765	2.211315	0.038595	17.793470	-3.863246	0.000000	-0.387645	1.999824	0.857852	0.878650	0.015335	23.934409	6.253623	0.000000	0.086405	-0.296274	1.066281	0.160462	-0.394045	1.132923	0.141954	-0.720361	1.132923	0.098752	-0.720361	0.932995	0.080235	-0.604163	0.866353	0.049372	-0.458929	0.799710	0.617179	-3.351515	5.930332	0.000000	0.000000	26.914950	0.346962	-8.377197	0.508698	-6.331568	36.128695	45.237127	66.136774	-4.830483	9.019207	9.805469	-6.952149	44.580441	41.003198	86.098411	20.960812	16.416330
1.196429	-4.039632	-5.634494	87.117230	0.230440	0.836793	0.700425	-0.650003	-3.494090	-1.556613	2.249772	0.039266	17.574322	-4.388146	0.000000	-0.383330	1.995830	1.363607	0.798999	0.013945	23.625719	5.496792	0.000000	0.087369	-0.300210	1.094532	0.162252	-0.399280	1.162940	0.143538	-0.729931	1.162940	0.099854	-0.729931	0.957715	0.081131	-0.612189	0.889307	0.049922	-0.465026	0.820899	0.624065	-3.396039	6.087457	0.000000	0.000000	26.931585	0.209813	-8.710286	0.493532	-6.287898	36.069857	45.234640	66.278304	-5.113575	8.474989	9.890494	-6.952745	44.672465	40.950353	85.898328	21.132260	16.585611
1.214286	-4.015579	-5.676530	87.059956	0.230660	0.836700	0.700729	-0.579907	-3.449717	-1.211984	2.271328	0.039642	17.377280	-4.902529	0.000000	-0.382373	1.963314	1.993009	0.730995	0.012758	23.295942	4.566620	0.000000	0.089336	-0.299945	1.119630	0.165907	-0.398927	1.189607	0.146771	-0.729287	1.189607	0.102103	-0.729287	0.979676	0.082958	-0.611649	0.909699	0.051047	-0.464615	0.839722	0.638121	-3.393042	6.227045	0.000000	0.000000	26.947814	0.077206	-9.005211	0.473024	-6.239294	35.897689	45.255166	66.417986	-5.301795	8.129501	9.955846	-6.939815	44.747409	40.893182	85.705286	21.231246	16.693394
1.232143	-3.974733	-5.721691	87.039327	0.230829	0.836598	0.700993	-0.513275	-3.387307	-0.906360	2.282440	0.039836	17.228361	-5.372277	0.000000	-0.376820	1.914807	2.745876	0.670185	0.011697	22.974670	3.517683	0.000000	0.092279	-0.297688	1.128368	0.171370	-0.395926	1.198891	0.151604	-0.723800	1.198891	0.105465	-0.723800	0.987322	0.085690	-0.607046	0.916799	0.052728	-0.461119	0.846276	0.659136	-3.367511	6.275647	0.000000	0.000000	26.969336	0.000213	-9.210257	0.505005	-6.199027	35.799258	45.259322	66.360859	-5.338185	7.882605	9.963153	-6.925883	44.671573	40.858883	85.545284	21.365185	16.798068
1.250000	-3.922798	-5.767952	87.040614	0.230936	0.836497	0.701234	-0.446242	-3.316685	-0.676127	2.286649	0.039910	17.139718	-5.716125	0.000000	-0.361421	1.858277	3.500025	0.623174	0.010876	22.689084	2.472841	0.000000	0.095299	-0.293736	1.129700	0.176980	-0.390669	1.200306	0.156567	-0.714190	1.200306	0.108917	-0.714190	0.988488	0.088495	-0.598987	0.917881	0.054454	-0.454997	0.847275	0.680713	-3.322801	6.283053	0.000000	0.000000	26.997460	-0.052849	-9.364539	0.553679	-6.169573	35.720375	45.269554	66.040627	-5.286838	7.731960	9.944438	-6.903136	44.534364	40.825235	85.411341	21.522090	16.857942
1.267857	-3.866046	-5.815258	87.055667	0.231025	0.836394	0.701441	-0.381276	-3.240281	-0.475069	2.278812	0.039773	17.113424	-5.995572	0.000000	-0.341538	1.797499	4.274858	0.578727	0.010101	22.424362	1.414776	0.000000	0.098990	-0.289203	1.126337	0.183834	-0.384639	1.196734	0.162631	-0.703167	1.196734	0.113136	-0.703167	0.985545	0.091922	-0.589742	0.915149	0.056563	-0.447975	0.844753	0.707075	-3.271517	6.264351	0.000000	0.000000	27.027612	-0.081447	-9.465303	0.608864	-6.139697	35.656689	45.273606	65.606370	-5.153358	7.626329	9.895300	-6.879494	44.343141	40.805614	85.310207	21.676067	16.916723
1.285714	-3.805512	-5.859072	87.098917	0.231059	0.836284	0.701584	-0.333820	-3.162900	-0.394459	2.245288	0.039188	17.172579	-6.083516	0.000000	-0.317758	1.733759	4.953000	0.548596	0.009575	22.236366	0.526374	0.000000	0.102950	-0.283483	1.120837	0.191189	-0.377032	1.190889	0.169137	-0.689260	1.190889	0.117662	-0.689260	0.980732	0.095600	-0.578078	0.910680	0.058826	-0.439115	0.840628	0.735363	-3.206812	6.233758	0.000000	0.000000	27.068846	-0.118287	-9.499437	0.630380	-6.122566	35.611305	45.284848	64.957470	-5.032943	7.392154	9.842452	-6.846494	44.173541	40.776924	85.215279	21.852003	16.960020
1.303571	-3.750510	-5.904049	87.142668	0.231098	0.836183	0.701763	-0.275255	-3.090942	-0.370907	2.216984	0.038694	17.289047	-6.069736	0.000000	-0.283740	1.674441	5.520615	0.525526	0.009172	22.077811	-0.215273	0.000000	0.106781	-0.278720	1.113710	0.198303	-0.370698	1.183317	0.175430	-0.677681	1.183317	0.122040	-0.677681	0.974496	0.099157	-0.568367	0.904890	0.061015	-0.431738	0.835283	0.762726	-3.152941	6.194122	0.000000	0.000000	27.104646	-0.130469	-9.514972	0.671720	-6.103919	35.636461	45.263817	64.242718	-4.903102	7.153321	9.785003	-6.815014	43.969980	40.748942	85.187174	22.061902	16.988205
1.321429	-3.695055	-5.937732	87.150377	0.231173	0.836103	0.701923	-0.217832	-3.023325	-0.453568	2.198233	0.038366	17.485123	-5.823957	0.000000	-0.259448	1.616839	5.920675	0.510510	0.008910	21.952434	-0.804647	0.000000	0.110013	-0.273706	1.114082	0.204304	-0.364028	1.183712	0.180740	-0.665488	1.183712	0.125733	-0.665488	0.974822	0.102158	-0.558140	0.905192	0.062861	-0.423970	0.835562	0.785808	-3.096212	6.196191	0.000000	0.000000	27.141288	-0.116712	-9.495733	0.711749	-6.092890	35.710979	45.218070	63.332276	-4.731618	6.967293	9.742581	-6.784729	43.832929	40.715080	85.131404	22.197647	17.011575
